<?xml version="1.0" standalone="no"?><!DOCTYPE svg PUBLIC "-//W3C//DTD SVG 1.1//EN" "http://www.w3.org/Graphics/SVG/1.1/DTD/svg11.dtd"><svg t="1680446616421" class="icon" viewBox="0 0 1024 1024" version="1.1" xmlns="http://www.w3.org/2000/svg" p-id="3320" xmlns:xlink="http://www.w3.org/1999/xlink" width="200" height="200"><path d="M541.32 223.24a32 32 0 0 1-29.6-19.81c-1.26-3.06-12.32-30.93-12.08-66.84C500 85.44 522.59 43.8 565 16.17a32 32 0 1 1 35 53.61c-24.21 15.78-36.07 37.77-36.27 67.24a125.47 125.47 0 0 0 7.24 42 32 32 0 0 1-29.57 44.21z" fill="#BABA00" p-id="3321"></path><path d="M436.4 191.28a86.67 86.67 0 0 1 173.35 0" fill="#B78700" p-id="3322"></path><path d="M507.9 960.64a400.68 400.68 0 1 1 0-801.35 405 405 0 0 1 61.57 4.71 398.19 398.19 0 0 1 107 32.4 32 32 0 1 1-27 58 334.18 334.18 0 0 0-89.83-27.19 340.64 340.64 0 0 0-51.81-4 336.65 336.65 0 1 0 314 458.47 32 32 0 1 1 59.66 23.16 400.81 400.81 0 0 1-373.59 255.8z" fill="#AF0050" p-id="3323"></path><path d="M884.78 599.7a32 32 0 0 1-32-32 341.83 341.83 0 0 0-2.67-42.61 336.54 336.54 0 0 0-106.94-206 32 32 0 0 1 43.18-47.24 400.61 400.61 0 0 1 127.26 245.23 405.9 405.9 0 0 1 3.17 50.62 32 32 0 0 1-32 32z" fill="#AF0050" p-id="3324"></path><path d="M512.04 559.48m-283.12 0a283.12 283.12 0 1 0 566.24 0 283.12 283.12 0 1 0-566.24 0Z" fill="#FF9773" p-id="3325"></path><path d="M429.81 562.81c0-44 63.74-84.47 63.74-84.47 4.64-2.95 4.52-7.57-0.27-10.26 0 0-32.32-18.18-57.28-18.18a106 106 0 0 0 0 211.92c18.83 0 42.56-9.74 42.56-9.74 5.09-2.09 5.74-6.62 1.46-10.07-0.02-0.01-50.21-40.41-50.21-79.2z" fill="#E2866D" p-id="3326"></path><path d="M358.52 571.32a31.39 45.63 0 1 0 62.78 0 31.39 45.63 0 1 0-62.78 0Z" fill="#F4D07D" p-id="3327"></path><path d="M594.19 557.11c0 44-63.74 84.47-63.74 84.47-4.64 2.95-4.52 7.57 0.27 10.26 0 0 32.32 18.18 57.28 18.18a106 106 0 0 0 0-211.92c-18.83 0-42.56 9.74-42.56 9.74-5.09 2.09-5.74 6.62-1.46 10.07 0.02 0.01 50.21 40.41 50.21 79.2z" fill="#E2866D" p-id="3328"></path><path d="M602.7 548.6a31.39 45.63 0 1 0 62.78 0 31.39 45.63 0 1 0-62.78 0Z" fill="#F4D07D" p-id="3329"></path></svg>